HIERARCHY
ROOT Hips
{
	OFFSET	0.00	0.00	0.00
	CHANNELS 6 Xposition Yposition Zposition Zrotation Xrotation Yrotation
	JOINT LeftUpLeg
	{
		OFFSET	 0.126116	-0.014019	-0.065224
		CHANNELS 3 Zrotation Xrotation Yrotation
		JOINT LeftLeg
		{
			OFFSET	 0.000000	 0.000000	 0.569914
			CHANNELS 3 Zrotation Xrotation Yrotation
			JOINT LeftFoot
			{
				OFFSET	 0.000000	 0.000000	 0.544423
				CHANNELS 3 Zrotation Xrotation Yrotation
				JOINT LeftToeBase
				{
					OFFSET	 0.000000	 0.000000	 0.207117
					CHANNELS 3 Zrotation Xrotation Yrotation
					End Site
					{
						OFFSET	 0.000000	 0.000000	 0.207117
					}
				}
			}
		}
	}
	JOINT RightUpLeg
	{
		OFFSET	-0.124023	-0.008373	-0.065224
		CHANNELS 3 Zrotation Xrotation Yrotation
		JOINT RightLeg
		{
			OFFSET	 0.000000	 0.000000	 0.570047
			CHANNELS 3 Zrotation Xrotation Yrotation
			JOINT RightFoot
			{
				OFFSET	 0.000000	 0.000000	 0.544354
				CHANNELS 3 Zrotation Xrotation Yrotation
				JOINT RightToeBase
				{
					OFFSET	 0.000000	 0.000000	 0.207540
					CHANNELS 3 Zrotation Xrotation Yrotation
					End Site
					{
						OFFSET	 0.000000	 0.000000	 0.207540
					}
				}
			}
		}
	}
	JOINT Spine
	{
		OFFSET	 0.000184	-0.007763	 0.117403
		CHANNELS 3 Zrotation Xrotation Yrotation
		JOINT Spine1
		{
			OFFSET	 0.000000	 0.000000	 0.137269
			CHANNELS 3 Zrotation Xrotation Yrotation
			JOINT Spine2
			{
				OFFSET	 0.000000	 0.000000	 0.156879
				CHANNELS 3 Zrotation Xrotation Yrotation
				JOINT LeftShoulder
				{
					OFFSET	 0.080501	-0.002496	 0.160144
					CHANNELS 3 Zrotation Xrotation Yrotation
					JOINT LeftArm
					{
						OFFSET	 0.000000	 0.000000	 0.164363
						CHANNELS 3 Zrotation Xrotation Yrotation
						JOINT LeftForeArm
						{
							OFFSET	 0.000000	 0.000000	 0.364576
							CHANNELS 3 Zrotation Xrotation Yrotation
							JOINT LeftHand
							{
								OFFSET	 0.000000	 0.000000	 0.360812
								CHANNELS 3 Zrotation Xrotation Yrotation
								JOINT LeftHandIndex1
								{
									OFFSET	 0.000000	 0.000000	 0.086006
									CHANNELS 3 Zrotation Xrotation Yrotation
									JOINT LeftHandIndex2
									{
										OFFSET	 0.000000	 0.000000	 0.047236
										CHANNELS 3 Zrotation Xrotation Yrotation
										JOINT LeftHandIndex3
										{
											OFFSET	-0.004284	-0.000551	 0.038166
											CHANNELS 3 Zrotation Xrotation Yrotation
											End Site
											{
												OFFSET	-0.004284	-0.000551	 0.038166
											}
										}
									}
								}
							}
						}
					}
				}
				JOINT Neck
				{
					OFFSET	 0.000000	 0.000000	 0.176489
					CHANNELS 3 Zrotation Xrotation Yrotation
					JOINT Head
					{
						OFFSET	 0.000000	-0.001747	 0.077940
						CHANNELS 3 Zrotation Xrotation Yrotation
						End Site
						{
							OFFSET	 0.000000	-0.001747	 0.077940
						}
					}
				}
				JOINT RightShoulder
				{
					OFFSET	-0.080363	 0.000306	 0.159706
					CHANNELS 3 Zrotation Xrotation Yrotation
					JOINT RightArm
					{
						OFFSET	 0.000000	 0.000000	 0.164196
						CHANNELS 3 Zrotation Xrotation Yrotation
						JOINT RightForeArm
						{
							OFFSET	 0.000000	 0.000000	 0.365611
							CHANNELS 3 Zrotation Xrotation Yrotation
							JOINT RightHand
							{
								OFFSET	 0.000000	 0.000000	 0.360648
								CHANNELS 3 Zrotation Xrotation Yrotation
								JOINT RightHandIndex1
								{
									OFFSET	 0.000000	 0.000000	 0.069977
									CHANNELS 3 Zrotation Xrotation Yrotation
									JOINT RightHandIndex2
									{
										OFFSET	 0.000000	 0.000000	 0.052305
										CHANNELS 3 Zrotation Xrotation Yrotation
										JOINT RightHandIndex3
										{
											OFFSET	 0.009002	-0.000782	 0.042196
											CHANNELS 3 Zrotation Xrotation Yrotation
											End Site
											{
												OFFSET	 0.009002	-0.000782	 0.042196
											}
										}
									}
								}
							}
						}
					}
				}
			}
		}
	}
}
MOTION
Frames:    12
Frame Time: 0.03333334
-0.056529	-2.223034	 1.204471	 4.309796	-1.483974	-2.836608	-6.305731	-13.348630	-170.709200	 0.546266	-38.213230	 0.099161	 44.088990	 79.781140	-47.757020	-2.370836	 31.373170	-0.064459	 3.210106	-28.781740	-175.664800	 10.323600	-52.257460	 8.803911	 16.048840	 72.237370	-12.430440	 2.358161	 33.119740	 0.105998	-5.315571	 8.826345	 2.070116	-1.712184	 1.954675	-1.098820	 2.241441	-1.858301	 1.119181	-93.821910	 58.907990	 175.643500	 25.188010	 45.650090	-19.710270	-1.300996	-2.976059	-26.123340	-1.635705	-25.531800	-7.019087	-4.869335	 19.242770	-2.786469	-3.888635	 21.381700	 2.209982	-4.808247	 5.545617	 0.146963	-0.110255	-5.034138	 0.166620	 0.018219	 2.190901	 2.818705	 89.815540	 61.603000	-179.920400	-20.286950	 51.960210	 13.628770	-1.581291	-1.520399	 7.821707	-4.668513	-11.409120	 0.717355	 6.300977	 25.629150	-0.565356	 1.780176	 45.538030	-6.899013	 0.408661	 24.789710	 3.628302
-0.057426	-2.238775	 1.204624	 5.306037	-0.854207	-2.790404	-7.322741	-13.148380	-170.865400	 1.092322	-37.918300	 0.454528	 43.692220	 79.817120	-47.817910	-2.369100	 31.664440	-0.071045	 0.946246	-30.472850	-175.437900	 11.085390	-50.007290	 9.126960	 31.727200	 78.349080	-29.505800	 2.358948	 33.003640	 0.103308	-6.332985	 8.482944	 1.922667	-1.858571	 1.488080	-1.193051	 2.548389	-1.808694	 1.334293	-94.021560	 59.017360	 175.203900	 25.910110	 44.444580	-20.301130	-2.120935	-2.776142	-27.914570	-1.568938	-25.643090	-8.587075	-4.866974	 19.304820	-2.790837	-3.879551	 21.498040	 2.200744	-4.806705	 5.563849	 0.145899	-0.056603	-5.092095	 0.206044	 0.500917	 2.067896	 2.664325	 89.748460	 61.686690	 179.919700	-19.623900	 52.427460	 12.926120	-2.031609	-1.309687	 6.477336	-4.869385	-10.664100	 0.464160	 6.285931	 24.236100	-0.542022	 1.963418	 44.063010	-7.062439	 0.659622	 23.688150	 3.501246
-0.058279	-2.257846	 1.204315	 6.087593	-0.034174	-2.881026	-8.082668	-12.899130	-170.915200	 1.398912	-37.511580	 0.637094	 43.847620	 79.987300	-48.200480	-2.367381	 31.946340	-0.077455	-0.980602	-32.471400	-175.129400	 11.821000	-47.020110	 9.271637	 63.131120	 81.023270	-62.566010	 2.359609	 32.904870	 0.101020	-7.026275	 7.921480	 1.784885	-1.977851	 1.161788	-1.134534	 2.735179	-1.808382	 1.434759	-94.233490	 59.003160	 174.753700	 26.149770	 43.016830	-20.650360	-2.596329	-2.765648	-30.152700	-1.172605	-25.963450	-9.113444	-4.857986	 19.535070	-2.806133	-3.865427	 21.678230	 2.186395	-4.799777	 5.645430	 0.141118	-0.017993	-5.132852	 0.269496	 0.811494	 1.975094	 2.594690	 89.654080	 61.801470	 179.693100	-18.923470	 52.900480	 12.068260	-2.845166	-1.138424	 5.252124	-5.381314	-9.895052	 0.006558	 6.261431	 22.582540	-0.573906	 2.140148	 42.556010	-7.218719	 1.007056	 22.127240	 3.331959
-0.058785	-2.281065	 1.203245	 6.466125	 0.681427	-3.229482	-8.388812	-12.171310	-170.674000	 1.594489	-36.844780	 0.744700	 45.855100	 80.356900	-50.404570	-2.364090	 32.467550	-0.089373	-1.176707	-34.269480	-174.303800	 12.079290	-43.189760	 8.838715	 85.406780	 79.382330	-86.378140	 2.360000	 32.847100	 0.099679	-7.373651	 7.273429	 1.901408	-2.024718	 1.293359	-1.012201	 2.851673	-1.925054	 1.452283	-94.405920	 58.925520	 174.398400	 25.939690	 41.362090	-21.114080	-3.403692	-2.527272	-32.623820	-1.059667	-26.426770	-8.514066	-4.841059	 19.915840	-2.821036	-3.844273	 21.946520	 2.164902	-4.785872	 5.808986	 0.131508	 0.001572	-5.206834	 0.324944	 0.973676	 1.893348	 2.596558	 89.525970	 61.954430	 179.382600	-18.024660	 53.387400	 10.885910	-4.119995	-1.071890	 4.465474	-6.215008	-9.040890	-1.039268	 6.227143	 20.645450	-0.643215	 2.324423	 40.889810	-7.380105	 1.430072	 20.171430	 3.136695
-0.059525	-2.308575	 1.201182	 6.615638	 1.016220	-3.549161	-8.571014	-10.751250	-170.410000	 1.716656	-36.096760	 0.803664	 46.304550	 80.395100	-50.992980	-2.355797	 33.687470	-0.117695	 0.079311	-35.251900	-173.180500	 11.334840	-38.418380	 7.583443	 110.295000	 75.172290	-111.859900	 2.349662	 34.300500	 0.133780	-7.649679	 6.798425	 2.061813	-2.009385	 1.910959	-0.857352	 2.914831	-2.224603	 1.424034	-94.496830	 58.863790	 174.214900	 25.002330	 39.822450	-21.650260	-3.978148	-2.351318	-34.895000	-1.246687	-26.462670	-8.034950	-4.825495	 20.293460	-2.843719	-3.816982	 22.289740	 2.137183	-4.763959	 6.065971	 0.116320	 0.035166	-5.301124	 0.346738	 1.063853	 1.795685	 2.537413	 89.425230	 62.035350	 179.137100	-16.847850	 53.841550	 8.916577	-5.538217	-1.244195	 4.668968	-6.947501	-8.452959	-2.476495	 6.187628	 18.523490	-0.717252	 2.599351	 38.207650	-7.617547	 1.882800	 18.012590	 2.941581
-0.060960	-2.340604	 1.198052	 6.887511	 1.048347	-3.768842	-8.966884	-8.757348	-170.239900	 1.958146	-35.274900	 0.927292	 43.492000	 79.983800	-48.366200	-2.335823	 36.216390	-0.178483	 0.627974	-35.507790	-172.288000	 11.309500	-32.499630	 6.552642	 102.254100	 73.708450	-104.695000	 2.335154	 36.095390	 0.177201	-8.109879	 6.726984	 2.147690	-1.967544	 2.571142	-0.602338	 2.895446	-3.126536	 1.314506	-94.544830	 58.917060	 174.104300	 23.701110	 38.772320	-22.142480	-4.063039	-2.433936	-36.528400	-1.645830	-27.111740	-8.426641	-4.845031	 20.502780	-3.018742	-3.788805	 22.641020	 2.108566	-4.732695	 6.431040	 0.094561	 0.106852	-5.397446	 0.350994	 1.104423	 1.515211	 2.269423	 89.358270	 61.958860	 178.978100	-15.522180	 54.213570	 5.786979	-6.747640	-1.659089	 5.728700	-7.288027	-8.384977	-3.800599	 6.164666	 16.315510	-0.684280	 2.864791	 35.372550	-7.842436	 2.335613	 15.788130	 2.761515
-0.064701	-2.382700	 1.193031	 7.146367	 0.945933	-3.414880	-9.626611	-6.020484	-170.721200	 2.379572	-34.517090	 1.148844	 33.822040	 78.045510	-38.863860	-2.273164	 42.044460	-0.331862	 1.037484	-35.015310	-172.125900	 9.750325	-24.818040	 4.451868	 65.116970	 74.069880	-66.761410	 2.338970	 35.646500	 0.166195	-8.700582	 6.551661	 1.804024	-1.834987	 3.782119	-0.410378	 2.703793	-4.218707	 1.126240	-94.511860	 59.222760	 174.123700	 22.018090	 37.988030	-23.296580	-4.168282	-2.427633	-37.354940	-2.477593	-27.976690	-9.193065	-4.879165	 20.614780	-3.250985	-3.763572	 22.952770	 2.082945	-4.683189	 7.005212	 0.059895	 0.189746	-5.480892	 0.274446	 1.080330	 1.276366	 2.081906	 89.355730	 61.633650	 178.984100	-14.315780	 54.201930	 2.339142	-7.897880	-2.172457	 6.960946	-7.662539	-8.575026	-4.981507	 6.196991	 13.823180	-0.378377	 3.031809	 33.453200	-7.981417	 2.811426	 13.384620	 2.589383
-0.069852	-2.424103	 1.186099	 7.453566	 0.553359	-2.574149	-9.812228	-2.967980	-171.819900	 1.681633	-34.183130	 0.746729	 24.197910	 74.416550	-28.262740	-2.131201	 50.261430	-0.595083	 2.574670	-35.291530	-171.984900	 6.248074	-20.147630	 2.423805	 30.494320	 68.986110	-28.425640	 2.340399	 35.474250	 0.162001	-9.229388	 6.530243	 0.919245	-1.671679	 5.274671	 0.012816	 2.346548	-5.169065	 0.720457	-94.444020	 59.356910	 174.247100	 20.534760	 37.320450	-24.380690	-4.431951	-2.299947	-38.266670	-2.899522	-27.820580	-9.236544	-4.894907	 20.740980	-3.383631	-3.751325	 23.103140	 2.070510	-4.626328	 7.658782	 0.019773	 0.274903	-5.470112	 0.242517	 0.946702	 1.220549	 2.218470	 89.342020	 61.403210	 178.959900	-13.470530	 53.989500	-0.340498	-8.745539	-2.646705	 8.043254	-8.113710	-8.766831	-5.517266	 6.284034	 11.659440	 0.098260	 3.154954	 31.966200	-8.082502	 3.175820	 11.501360	 2.469927
-0.075338	-2.468464	 1.177495	 8.446861	-0.192946	-1.806301	-9.457237	 0.809574	-173.181700	-0.458240	-33.511520	-0.447755	 16.230600	 67.115140	-17.625690	-1.923260	 57.487000	-0.904530	 5.337494	-36.644310	-170.770100	 5.989819	-18.927830	 2.197911	 8.970185	 59.075290	-4.695060	 2.333278	 36.310230	 0.182502	-10.031460	 6.761276	 0.099383	-1.640466	 6.961815	 0.389203	 1.780681	-6.100499	 0.266434	-94.387700	 59.034050	 174.420000	 19.203560	 36.393350	-25.233290	-4.784265	-2.121959	-39.628580	-2.757268	-26.392520	-8.733018	-4.896080	 20.937400	-3.456662	-3.732462	 23.333530	 2.051370	-4.565591	 8.349909	-0.023438	 0.377375	-5.408116	 0.291573	 0.654182	 1.336842	 2.357292	 89.204550	 61.413710	 178.634600	-12.749010	 53.722630	-2.132217	-8.973396	-2.814079	 8.432168	-8.218951	-8.971850	-4.861067	 6.346651	 9.733131	 0.400387	 3.320906	 29.860820	-8.216662	 3.455826	 10.031290	 2.385667
-0.082436	-2.519107	 1.168375	 9.823579	-0.752847	-0.878522	-9.899743	 4.835987	-174.802000	 0.983249	-32.121010	 0.335266	 8.495770	 53.496560	-9.260071	-1.061385	 70.633580	-1.942378	 4.444235	-38.384520	-171.382300	 7.428428	-18.603400	 2.627651	 3.263298	 47.599430	-0.082226	 2.345667	 34.819360	 0.146179	-10.804680	 6.732211	-0.576318	-1.821666	 8.664714	 0.090141	 0.963979	-6.969381	 0.077395	-94.272740	 59.247070	 174.632900	 18.571350	 35.897650	-26.581250	-4.583237	-2.348083	-40.347600	-2.247159	-24.472210	-9.124707	-4.832429	 21.225360	-3.176369	-3.686874	 23.884560	 2.005108	-4.512779	 8.945090	-0.061314	 0.404650	-5.335960	 0.253094	 0.117456	 1.528713	 2.255651	 89.043340	 60.977360	 178.280000	-12.034000	 53.013890	-4.286949	-8.129961	-3.110062	 9.774701	-7.338058	-9.070077	-3.514301	 6.364573	 8.635123	 0.484822	 3.388096	 28.973780	-8.270265	 3.631986	 9.096848	 2.336101
-0.090234	-2.577661	 1.160890	 10.129130	-1.019592	 0.090528	-3.763388	 9.837896	-178.961000	 1.686911	-29.143510	 0.649838	 3.557557	 37.338890	 0.914384	-1.279990	 68.492420	-1.695698	 2.534320	-37.779140	-173.809300	 6.122597	-16.462180	 1.958486	 2.889663	 40.636750	 1.469978	 2.365056	 32.067780	 0.081741	-10.887790	 6.726925	-1.202837	-2.048459	 9.259822	-0.363489	 0.132586	-7.421765	-0.169315	-94.119410	 59.832210	 174.874800	 18.357260	 36.249820	-27.540050	-3.635111	-3.127250	-40.080050	-1.401055	-23.045510	-9.597980	-4.775631	 21.398260	-2.891941	-3.634628	 24.506160	 1.952101	-4.476064	 9.355529	-0.087795	 0.357870	-5.365515	 0.182628	-0.601864	 1.605893	 2.185542	 88.992250	 60.335390	 178.199900	-11.747040	 52.145380	-6.235763	-6.992524	-3.299387	 11.104170	-6.056311	-9.715993	-2.261137	 6.395314	 8.834717	 0.605543	 3.386587	 28.993880	-8.269063	 3.676147	 8.861526	 2.324096
-0.097422	-2.643946	 1.154385	 8.814408	-1.575259	 0.957496	 2.853077	 14.304400	 176.807400	 0.259460	-28.105710	-0.043938	 5.646700	 30.077030	 1.018449	-2.335188	 36.288430	-0.180264	 2.746244	-35.566110	-176.734400	 5.064230	-16.020940	 1.611974	 2.950425	 39.901360	 3.065252	 2.373317	 30.669530	 0.050140	-9.990988	 6.978878	-1.818722	-2.333938	 9.026921	-0.613504	-0.543506	-7.466095	-0.606066	-94.049240	 59.774310	 175.036800	 18.112860	 36.928730	-26.643540	-2.895164	-3.780546	-40.277170	-0.884509	-22.125640	-8.976631	-4.739695	 21.805520	-2.803899	-3.582814	 25.112290	 1.899548	-4.429287	 9.874773	-0.121724	 0.277895	-5.405689	 0.176225	-1.485412	 1.494449	 2.286437	 89.084200	 60.264730	 178.413000	-11.968440	 51.805950	-7.317824	-6.067435	-3.216759	 11.500890	-4.870843	-10.315700	-1.077206	 6.406380	 10.052580	 0.644525	 3.295778	 30.187360	-8.196515	 3.571266	 9.419716	 2.352883
